Coordinates
version=1
nRows=31
nColumns=38
inDegrees=no

Units are S.I. units (second, meters, Newtons, ...)
If the header above contains a line with 'inDegrees', this indicates whether rotational values are in degrees (yes) or radians (no).

endheader
time	pelvis_tilt	pelvis_list	pelvis_rotation	pelvis_tx	pelvis_ty	pelvis_tz	hip_flexion_r	hip_adduction_r	hip_rotation_r	knee_angle_r	ankle_angle_r	subtalar_angle_r	mtp_angle_r	hip_flexion_l	hip_adduction_l	hip_rotation_l	knee_angle_l	ankle_angle_l	subtalar_angle_l	mtp_angle_l	lumbar_extension	lumbar_bending	lumbar_rotation	arm_flex_r	arm_add_r	arm_rot_r	elbow_flex_r	pro_sup_r	wrist_flex_r	wrist_dev_r	arm_flex_l	arm_add_l	arm_rot_l	elbow_flex_l	pro_sup_l	wrist_flex_l	wrist_dev_l
5	1.87043	1.47181	-0.341902	0.69208	-0.355822	0.972753	-0.0132283	0.0533155	-0.32129	0.315627	0.184059	0	0	-0.134665	-0.080441	-0.218258	0.026932	0.0911085	0	0	-0.185162	0.155057	0.149793	0.570045	-0.424832	0.413462	0.854236	1.35196	0	0	0.534483	-0.12568	0.219759	0.783033	1.21765	0	0
5.01	1.8931	1.47126	-0.362912	0.692192	-0.355827	0.972891	-0.0160025	0.0533858	-0.322867	0.315096	0.184031	0	0	-0.135973	-0.0807816	-0.217217	0.028761	0.0915373	0	0	-0.191638	0.15382	0.148777	0.581952	-0.423817	0.422516	0.846744	1.34387	0	0	0.544086	-0.124534	0.21768	0.776987	1.21987	0	0
5.02	1.91594	1.47077	-0.384447	0.692306	-0.355875	0.973033	-0.0186122	0.0532642	-0.324099	0.314822	0.184082	0	0	-0.137591	-0.0808335	-0.21629	0.0297768	0.0915047	0	0	-0.198322	0.152447	0.148164	0.593727	-0.422886	0.431679	0.839395	1.33533	0	0	0.553988	-0.123404	0.215965	0.770717	1.22263	0	0
5.03	1.94065	1.47018	-0.408612	0.692475	-0.355981	0.973203	-0.0213136	0.0531055	-0.324419	0.31468	0.184186	0	0	-0.139613	-0.0807091	-0.216331	0.0305503	0.0914871	0	0	-0.205433	0.15093	0.148406	0.605784	-0.422223	0.441482	0.831691	1.32391	0	0	0.564407	-0.122131	0.214251	0.763524	1.22681	0	0
5.04	1.95832	1.46969	-0.425617	0.692642	-0.356002	0.973327	-0.0235129	0.0531539	-0.32495	0.314217	0.184221	0	0	-0.141204	-0.0807538	-0.216149	0.0309294	0.0915057	0	0	-0.211515	0.149569	0.148746	0.616464	-0.421464	0.449458	0.824686	1.31388	0	0	0.574676	-0.121104	0.213985	0.756361	1.22939	0	0
5.05	1.97465	1.46916	-0.440874	0.692791	-0.355959	0.973428	-0.025771	0.0532656	-0.326228	0.313544	0.184092	0	0	-0.142747	-0.080951	-0.215533	0.0313875	0.0916043	0	0	-0.217308	0.148315	0.148585	0.626802	-0.420418	0.457223	0.817639	1.30389	0	0	0.584751	-0.120554	0.214625	0.749434	1.2306	0	0
5.06	1.98599	1.46879	-0.451602	0.692941	-0.355919	0.973492	-0.0272266	0.0533017	-0.327204	0.313336	0.18401	0	0	-0.143969	-0.0810372	-0.21551	0.0313129	0.0916513	0	0	-0.222632	0.147215	0.148451	0.637406	-0.4191	0.465106	0.810433	1.29603	0	0	0.594343	-0.120302	0.214885	0.74291	1.23062	0	0
5.07	1.99531	1.46861	-0.460551	0.693094	-0.3559	0.973542	-0.0281733	0.0531604	-0.327993	0.313554	0.184213	0	0	-0.145088	-0.0809471	-0.215334	0.0308614	0.0912736	0	0	-0.227802	0.146034	0.14841	0.647951	-0.417673	0.473196	0.803462	1.28762	0	0	0.603788	-0.12018	0.21502	0.73665	1.23017	0	0
5.08	2.00988	1.46811	-0.474654	0.693213	-0.355893	0.973639	-0.0298925	0.0531064	-0.328641	0.313454	0.1844	0	0	-0.147137	-0.0807988	-0.21441	0.0298981	0.0903646	0	0	-0.233714	0.144994	0.147975	0.659717	-0.417142	0.487322	0.797045	1.25662	0	0	0.613113	-0.12022	0.214677	0.73076	1.23036	0	0
5.09	2.02084	1.46776	-0.485628	0.693363	-0.355916	0.973713	-0.0311305	0.0531736	-0.328125	0.313369	0.184242	0	0	-0.148729	-0.0805895	-0.213976	0.0291072	0.0896123	0	0	-0.239242	0.143818	0.148009	0.671075	-0.414962	0.494398	0.787576	1.25319	0	0	0.622454	-0.12036	0.215362	0.724727	1.23053	0	0
5.1	2.03031	1.4674	-0.495599	0.693545	-0.355995	0.973782	-0.032177	0.0533503	-0.326949	0.313235	0.183967	0	0	-0.150296	-0.0804191	-0.214152	0.0283207	0.0892259	0	0	-0.244857	0.142633	0.148414	0.682357	-0.412685	0.500954	0.778703	1.25056	0	0	0.631735	-0.120529	0.216399	0.718955	1.23125	0	0
5.11	2.03951	1.46704	-0.50523	0.693719	-0.356051	0.973831	-0.0332048	0.0534975	-0.326056	0.313135	0.183869	0	0	-0.152046	-0.0802277	-0.214363	0.0270457	0.0887116	0	0	-0.250373	0.141448	0.148675	0.69328	-0.410196	0.507745	0.769936	1.24683	0	0	0.641228	-0.12031	0.217139	0.712455	1.23248	0	0
5.12	2.048	1.46663	-0.513521	0.693811	-0.356038	0.973867	-0.0344432	0.0537081	-0.326034	0.312676	0.183815	0	0	-0.153953	-0.0800968	-0.214131	0.0251762	0.0881323	0	0	-0.255497	0.140572	0.148311	0.703832	-0.407378	0.514553	0.76071	1.24268	0	0	0.650431	-0.119938	0.217642	0.705688	1.2337	0	0
5.13	2.05434	1.46629	-0.519359	0.693876	-0.35598	0.973878	-0.0355961	0.0539779	-0.326466	0.311989	0.183683	0	0	-0.155698	-0.0799689	-0.213257	0.0231193	0.0874913	0	0	-0.260203	0.139828	0.147543	0.714013	-0.404218	0.520661	0.751449	1.23982	0	0	0.659177	-0.119519	0.217838	0.699292	1.2348	0	0
5.14	2.05758	1.46642	-0.522224	0.693949	-0.355917	0.973845	-0.0359229	0.053872	-0.326857	0.312009	0.184005	0	0	-0.156765	-0.0795906	-0.212456	0.0214385	0.0868705	0	0	-0.2644	0.138726	0.14696	0.723565	-0.400454	0.52357	0.741607	1.24695	0	0	0.667624	-0.11944	0.219641	0.693622	1.23114	0	0
5.15	2.06822	1.46577	-0.532138	0.693972	-0.355839	0.973881	-0.0376837	0.0541139	-0.327596	0.311451	0.184248	0	0	-0.159019	-0.0795602	-0.211411	0.019623	0.0861412	0	0	-0.269733	0.138032	0.145859	0.734131	-0.396961	0.529909	0.731612	1.24454	0	0	0.675729	-0.119358	0.219928	0.688227	1.23195	0	0
5.16	2.08154	1.46472	-0.544319	0.693967	-0.35573	0.973944	-0.0402322	0.05461	-0.328855	0.310355	0.184365	0	0	-0.161861	-0.079804	-0.210116	0.0175379	0.0853091	0	0	-0.275444	0.137614	0.144328	0.744879	-0.393273	0.53612	0.721109	1.24354	0	0	0.68363	-0.119268	0.219976	0.682845	1.23272	0	0
5.17	2.10293	1.46311	-0.564387	0.693926	-0.355663	0.974081	-0.0441741	0.0551964	-0.329873	0.308665	0.184256	0	0	-0.165933	-0.0800123	-0.20841	0.0150941	0.0840419	0	0	-0.282348	0.137354	0.142537	0.756762	-0.390095	0.547369	0.710587	1.22981	0	0	0.691633	-0.119084	0.21863	0.67702	1.23866	0	0
5.18	2.11903	1.46202	-0.579463	0.693912	-0.355616	0.974163	-0.0471838	0.0555905	-0.330318	0.307208	0.184265	0	0	-0.168885	-0.0800633	-0.207337	0.013438	0.0831182	0	0	-0.288476	0.13683	0.141366	0.767783	-0.386803	0.555929	0.699942	1.22462	0	0	0.699704	-0.118974	0.219461	0.670958	1.24077	0	0
5.19	2.13533	1.46091	-0.594802	0.693865	-0.355568	0.97424	-0.0501375	0.0557957	-0.330938	0.305972	0.184187	0	0	-0.171779	-0.0800492	-0.206624	0.0119426	0.0823117	0	0	-0.294599	0.136302	0.140205	0.778935	-0.383534	0.564745	0.688815	1.22065	0	0	0.707596	-0.118942	0.220658	0.664719	1.24257	0	0
5.2	2.14555	1.46016	-0.604263	0.693808	-0.355501	0.974284	-0.0521795	0.0558661	-0.331858	0.305039	0.184037	0	0	-0.173839	-0.0800323	-0.205956	0.0105809	0.0817082	0	0	-0.299873	0.135736	0.139374	0.78887	-0.379787	0.568602	0.677733	1.23031	0	0	0.715295	-0.118945	0.222256	0.658987	1.2396	0	0
5.21	2.1625	1.45853	-0.620203	0.693725	-0.355419	0.974404	-0.0557487	0.05631	-0.333002	0.303456	0.183645	0	0	-0.17714	-0.0803413	-0.204667	0.00933614	0.0813069	0	0	-0.306402	0.135601	0.138417	0.799421	-0.37699	0.577511	0.667781	1.22668	0	0	0.723174	-0.118575	0.221328	0.653265	1.23987	0	0
5.22	2.18402	1.45648	-0.640456	0.693597	-0.355342	0.974569	-0.0601275	0.0567339	-0.334366	0.301734	0.183305	0	0	-0.181038	-0.0806472	-0.203606	0.00818018	0.0809383	0	0	-0.313683	0.135591	0.137097	0.810744	-0.374541	0.590836	0.658001	1.21204	0	0	0.731083	-0.118331	0.220127	0.647371	1.24054	0	0
5.23	2.19905	1.45569	-0.654319	0.693474	-0.355251	0.974639	-0.0627331	0.0564259	-0.335517	0.300879	0.183518	0	0	-0.183202	-0.0803116	-0.202954	0.00753852	0.080461	0	0	-0.319426	0.134816	0.13602	0.820706	-0.370716	0.595781	0.646422	1.21969	0	0	0.73876	-0.118246	0.220806	0.641444	1.23922	0	0
5.24	2.21795	1.45471	-0.671817	0.693308	-0.355173	0.974744	-0.0657958	0.0559299	-0.336767	0.300122	0.183687	0	0	-0.185799	-0.0798228	-0.202125	0.00699725	0.0798823	0	0	-0.325716	0.134047	0.134592	0.831263	-0.367138	0.604086	0.634928	1.2173	0	0	0.746207	-0.118365	0.221557	0.636068	1.23881	0	0
5.25	2.23457	1.45384	-0.687172	0.693126	-0.355067	0.974811	-0.0683927	0.0553565	-0.33789	0.299734	0.183972	0	0	-0.188045	-0.0793161	-0.201707	0.00668362	0.0800862	0	0	-0.331596	0.13328	0.13326	0.841182	-0.363453	0.611213	0.623696	1.21609	0	0	0.753425	-0.118254	0.222745	0.630604	1.23879	0	0
5.26	2.25317	1.45256	-0.704425	0.692946	-0.354954	0.974895	-0.071608	0.0550447	-0.338932	0.299037	0.184218	0	0	-0.190848	-0.0789582	-0.200706	0.0063646	0.0805156	0	0	-0.3379	0.132753	0.131708	0.851143	-0.359342	0.619418	0.611892	1.21411	0	0	0.760602	-0.118172	0.223844	0.624822	1.23885	0	0
5.27	2.27113	1.45114	-0.721004	0.692759	-0.354841	0.974992	-0.0747869	0.0548315	-0.339934	0.298423	0.184474	0	0	-0.19343	-0.0787458	-0.200296	0.00659738	0.0810971	0	0	-0.344273	0.132406	0.130383	0.860636	-0.355507	0.627691	0.600705	1.21166	0	0	0.767929	-0.117667	0.224838	0.618586	1.23897	0	0
5.28	2.28538	1.44983	-0.733955	0.692587	-0.354703	0.975064	-0.0773427	0.0547157	-0.34102	0.298255	0.184826	0	0	-0.195448	-0.0786956	-0.200026	0.00717698	0.081799	0	0	-0.350201	0.132244	0.129409	0.869408	-0.35189	0.635245	0.590249	1.2096	0	0	0.775264	-0.116676	0.226087	0.611864	1.23925	0	0
5.29	2.2982	1.44867	-0.745476	0.692387	-0.354549	0.975126	-0.079604	0.0545374	-0.342221	0.298283	0.184861	0	0	-0.197452	-0.0785948	-0.199607	0.00732222	0.0824583	0	0	-0.355735	0.132086	0.128533	0.877781	-0.348301	0.642298	0.57943	1.20796	0	0	0.782364	-0.11557	0.228158	0.605139	1.23987	0	0
5.3	2.30996	1.44757	-0.755859	0.692156	-0.354362	0.975168	-0.0818514	0.054404	-0.343316	0.298251	0.184883	0	0	-0.199514	-0.0784738	-0.198736	0.00720112	0.082886	0	0	-0.36095	0.132091	0.127409	0.885936	-0.344488	0.64904	0.56807	1.20703	0	0	0.789208	-0.11458	0.23031	0.598634	1.23989	0	0
